<svg id="Warstwa_1" data-name="Warstwa 1" xmlns="http://www.w3.org/2000/svg" xmlns:xlink="http://www.w3.org/1999/xlink" viewBox="0 0 1913.21 749.79"><defs><style>.cls-1{fill:url(#Gradient_bez_nazwy_16);}</style><linearGradient id="Gradient_bez_nazwy_16" x1="178.57" y1="374.89" x2="1729.14" y2="374.89" gradientUnits="userSpaceOnUse"><stop offset="0" stop-color="#e4007a"/><stop offset="1" stop-color="#302979"/></linearGradient></defs><path class="cls-1" d="M178.57,294.37h40.82V472.94H178.57Zm188.78,0h40.81V472.94H377.55L308.67,376v96.94H267.86V294.37h30.61l68.88,96.93Zm200,86q21.95,14,21.94,40.31,0,23.22-16.58,37.76t-41.07,14.54h-75V294.37h69.9q24,0,40.18,14.15t16.2,36.87Q582.91,366.81,567.34,380.33Zm-40.81-47.7H497.45v31.63h29.08a14.93,14.93,0,0,0,11.22-4.46,17,17,0,0,0,0-22.71A15,15,0,0,0,526.53,332.63Zm5.1,102q7.65,0,12.25-4.72t4.59-12.37q0-7.65-4.59-12.37t-12.25-4.72H497.45v34.18Zm241.83,15.05q-27,26.79-65.81,26.79t-65.82-26.79q-27-26.79-27-66.07t27-66.07q27-26.79,65.82-26.79t65.81,26.79q27,26.79,27,66.07T773.46,449.72Zm-102.93-27.8q14.93,14.79,37.12,14.79t37.11-14.79q14.93-14.81,14.93-38.27t-14.93-38.26q-14.91-14.81-37.11-14.8t-37.12,14.8q-14.92,14.79-14.92,38.26T670.53,421.92Zm295.79,51H919.89l-30.1-51.65-30.1,51.65H813.26l53.31-91.48-50.76-87.09h46.43l27.55,47.27,27.55-47.27h46.43L913,381.46Zm476.85,0V443.35l59.95-62.25q18.11-18.62,18.11-31.63,0-8.42-5.1-13.65t-14-5.23q-17.86,0-26.27,19.39l-34.44-20.15q8.16-19.14,24.49-29.09a67.32,67.32,0,0,1,35.71-9.94q25,0,42.73,15.43t17.73,41.45q-.09,28.23-27.8,56.11l-29.68,29.86h60v39.29Zm286-66.33v37.76h-17.86v28.57H1670V444.37h-81.13V406.6l56.89-112.23h43.88l-56.89,112.24H1670V368.35h41.32v38.26ZM1214,181.45a21.52,21.52,0,0,0-21.51,0l-132.29,76.38,39.31,22.86,93-53.68a21.54,21.54,0,0,1,21.52,0l92.24,53.26,39.07-23Zm-172.29,288a19.71,19.71,0,0,0,9.86,17.07l29.6,17.09V315.67l-39.46-22.95Zm283.6-154.64v188.8l29.62-17.13a19.73,19.73,0,0,0,9.84-17.07V291.6Zm-91,7.78,37.87-22.3-59.16-34.16a21.52,21.52,0,0,0-21.51,0l-58.75,33.92,38,22.09a48.92,48.92,0,0,1,63.57.45ZM1113.81,511.25a19.69,19.69,0,0,0,10,17.13l29.5,16.82V357.6l-39.46-23Zm137.55-151.57V546.26l29.58-17a19.7,19.7,0,0,0,9.88-17.08v-177l-39.46,23.23Zm-67.84,44.38V551.91a19.73,19.73,0,0,0,39.46,0V404.11a49.77,49.77,0,0,1-20.66,4.51C1193.93,408.62,1189.31,406.42,1183.52,404.06Z"/></svg>