<svg xmlns="http://www.w3.org/2000/svg" xmlns:xlink="http://www.w3.org/1999/xlink" width="483" height="130" viewBox="0 0 483 130">
  <defs>
    <linearGradient id="linear-gradient" x1="0.013" x2="0.5" y2="1" gradientUnits="objectBoundingBox">
      <stop offset="0" stop-color="#e3007a"/>
      <stop offset="1" stop-color="#352879"/>
    </linearGradient>
    <clipPath id="clip-linia_1">
      <rect width="483" height="130"/>
    </clipPath>
  </defs>
  <g id="linia_1" clip-path="url(#clip-linia_1)">
    <g id="Group_2360" data-name="Group 2360" transform="translate(459.49 125.787) rotate(180)">
      <path id="Path_406" data-name="Path 406" d="M133.569,75.968C117.763,67.105,55.472,31.934,0,.612L.058.625,0,.591c4.86-1.758,9.956.759,13.762,2.916,6.075,3.443,107.577,60.744,120.52,68.024a12.088,12.088,0,0,0,5.573,1.7c2.272.005,122.561.02,242.524.025v4.986c-119.329-.014-238.84-.05-240.4-.056A18.084,18.084,0,0,1,133.569,75.968Z" transform="translate(77.111 0)" fill="url(#linear-gradient)"/>
      <path id="Path_407" data-name="Path 407" d="M152.689,86.724C135.046,76.848,59.353,34.118,0,.613L.064.629,0,.59C4.856-1.166,9.947,1.35,13.75,3.5c1.517.86,122.54,69.149,138.225,77.925a21.153,21.153,0,0,0,9.781,2.664c4.794.026,122.463.063,239.849.073v5.013c-118.935-.017-238.056-.058-239.551-.065A20.154,20.154,0,0,1,152.689,86.724Z" transform="translate(57.885 0)" fill="url(#linear-gradient)"/>
      <path id="Path_408" data-name="Path 408" d="M171.857,97.581C152.248,86.584,60.9,34.987,0,.613L.061.627,0,.592c4.864-1.759,9.963.76,13.771,2.918,2.205,1.25,140.764,79.5,158.35,89.372a16.086,16.086,0,0,0,7.441,2.161c2.286.009,121.837.041,241.21.053v4.992c-119.417-.016-239.016-.055-240.551-.062A18.168,18.168,0,0,1,171.857,97.581Z" transform="translate(38.718 0)" fill="url(#linear-gradient)"/>
      <path id="Path_409" data-name="Path 409" d="M191.254,108.489C169.384,96.245,58.732,33.752,0,.612L.066.627,0,.589C4.845-1.163,9.925,1.346,13.718,3.5c6.056,3.432,159.245,89.919,177.6,100.217a17.119,17.119,0,0,0,7.926,2.223c2.258.009,121.584.043,240.729.056v4.9c-119.078-.016-238.342-.055-239.828-.062A19.148,19.148,0,0,1,191.254,108.489Z" transform="translate(19.516 0)" fill="url(#linear-gradient)"/>
      <path id="Path_410" data-name="Path 410" d="M.046.6.023.587.056.6C5.1-1.2,10.389,1.413,14.34,3.653c3.244,1.838,175.065,98.831,196.274,110.708a19.154,19.154,0,0,0,8.9,2.344c3.16.015,121.68.05,239.979.062v4.782c-119.07-.017-238.325-.058-239.865-.065a20.215,20.215,0,0,1-9.372-2.443C186.49,105.751,56.483,32.645,4.435,3.094,3.026,2.323,1.2,1.332,0,.614.015.608.03.6.046.6Z" transform="translate(0 0.026)" fill="url(#linear-gradient)"/>
    </g>
  </g>
</svg>
