<svg xmlns="http://www.w3.org/2000/svg" xmlns:xlink="http://www.w3.org/1999/xlink" width="413" height="413" viewBox="0 0 413 413">
  <defs>
    <clipPath id="clip-Web_1920_1">
      <rect width="413" height="413"/>
    </clipPath>
  </defs>
  <g id="Web_1920_1" data-name="Web 1920 – 1" clip-path="url(#clip-Web_1920_1)">
    <g id="Group_1" data-name="Group 1" transform="translate(-164.735 -54.941)">
      <g id="Group_2335" data-name="Group 2335" transform="translate(171.735 68.941)">
        <path id="Path_468" data-name="Path 468" d="M552.428,405.775,402.781,429.6,252.8,453.357a.776.776,0,0,1-.258,0l-79.868-15.031a.9.9,0,0,1-.726-.878l-.212-321.6a1.109,1.109,0,0,1,.541-.95L203.053,96.6a1.133,1.133,0,0,1,.41-.144L282.42,85.353a1.1,1.1,0,0,1,.281,0l123.993,15.681-.681.163,47.3-32.089a.966.966,0,0,1,.692-.153l115.946,18.9a.8.8,0,0,1,.668.781l.762,261.834a.218.218,0,0,1-.056.147l-18.8,20.9.033-.086Zm0,0-.128-34.346a.127.127,0,0,1,.032-.085L571,350.32l-.056.146L569.029,88.637l.668.781-116-18.572.691-.153-47.263,32.142a.994.994,0,0,1-.681.164L282.436,87.456l.28,0-78.944,11.2.41-.144L173.4,116.793l.541-.95-.212,321.6-.726-.877,79.817,15.3-.258,0L402.33,428.788Z" transform="translate(-171.735 -68.941)"/>
      </g>
      <path id="Path_469" data-name="Path 469" d="M286.277,459.491l-.511-86.98-.3-86.98-.132-43.489-.047-43.49-.094-86.98a1.088,1.088,0,0,1,.519-.927l29.877-18.3a1.1,1.1,0,0,1,1.518.363,1.12,1.12,0,0,1,.163.579l-.1,90.384L317,274.053l-.308,90.384-.532,90.384-.532-90.384-.308-90.384-.166-90.384-.1-90.384,1.682.943L286.845,112.5l.52-.928-.094,86.98-.047,43.49-.132,43.489-.3,86.98Z" transform="translate(-33.594 -6.881)"/>
      <path id="Path_470" data-name="Path 470" d="M173.3,130.882c6.589-1.387,13.21-2.555,19.841-3.647,3.313-.566,6.636-1.054,9.954-1.578l9.972-1.455,9.988-1.335c3.335-.4,6.665-.848,10.006-1.21,6.676-.768,13.363-1.457,20.081-1.927-6.59,1.389-13.209,2.559-19.841,3.65-3.313.567-6.636,1.052-9.955,1.578l-9.972,1.452-9.989,1.332c-3.335.4-6.665.847-10.006,1.21C186.709,129.719,180.022,130.41,173.3,130.882Z" transform="translate(-0.465 -15.039)"/>
      <path id="Path_471" data-name="Path 471" d="M422.295,105.53c.251,14.29.36,28.58.543,42.869l.31,42.869c.134,14.29.109,28.58.159,42.869l.1,42.869-.1,42.869c-.053,14.29-.022,28.58-.157,42.869l-.311,42.869c-.186,14.29-.294,28.58-.547,42.869-.253-14.29-.361-28.58-.547-42.869l-.311-42.869c-.135-14.289-.1-28.579-.157-42.869l-.1-42.869.1-42.869c.05-14.29.025-28.58.159-42.869l.31-42.869C421.935,134.11,422.043,119.82,422.295,105.53Z" transform="translate(-73.862 -10.834)"/>
      <path id="Path_472" data-name="Path 472" d="M504.894,442.229q-.573-40.819-.767-81.638c-.227-27.213-.218-54.425-.289-81.637-.109-27.213.01-54.425.056-81.638.006-27.213.243-54.425.408-81.638v-.009a.588.588,0,0,1,.591-.584.545.545,0,0,1,.076.006l26.783,3.681q13.391,1.84,26.774,3.747-13.435-1.5-26.858-3.093l-26.849-3.158.668-.588c.164,27.213.4,54.425.407,81.638.047,27.213.165,54.425.057,81.638-.071,27.212-.063,54.424-.289,81.637Q505.436,401.41,504.894,442.229Z" transform="translate(-98.324 -13.663)"/>
      <path id="Path_473" data-name="Path 473" d="M581.081,71.76c.251,14.552.36,29.1.544,43.655l.31,43.655c.134,14.552.109,29.1.159,43.655l.1,43.654-.1,43.655c-.053,14.552-.022,29.1-.158,43.655l-.311,43.655c-.185,14.552-.293,29.1-.546,43.655-.253-14.552-.362-29.1-.547-43.655l-.311-43.655c-.135-14.552-.1-29.1-.157-43.655l-.1-43.655.1-43.654c.05-14.552.025-29.1.159-43.655l.31-43.655C580.722,100.863,580.83,86.312,581.081,71.76Z" transform="translate(-120.879 -0.835)"/>
      <path id="Path_474" data-name="Path 474" d="M649.532,82.818c.251,12.413.36,24.825.543,37.237l.31,37.237c.2,24.824.233,49.649.261,74.474-.025,24.825-.055,49.65-.257,74.475l-.311,37.238c-.185,12.412-.293,24.825-.547,37.237-.253-12.412-.361-24.825-.546-37.237l-.311-37.238c-.2-24.825-.232-49.65-.257-74.475.028-24.825.057-49.65.26-74.474l.31-37.237C649.172,107.643,649.282,95.23,649.532,82.818Z" transform="translate(-141.148 -4.109)"/>
      <path id="Path_475" data-name="Path 475" d="M427.463,95.515c1.628-1.245,3.26-2.485,4.91-3.7l4.936-3.662c1.64-1.228,3.31-2.413,4.963-3.622s3.317-2.4,4.985-3.589a.759.759,0,0,1,.319-.132l.035-.006c3.4-.54,6.8-1.079,10.208-1.58s6.809-1.032,10.219-1.506c6.814-.99,13.639-1.9,20.464-2.816l10.248-1.3,10.259-1.215c6.845-.771,13.7-1.485,20.565-2.091-6.774,1.28-13.563,2.453-20.36,3.569l-10.2,1.615-10.215,1.534c-6.816.976-13.633,1.948-20.461,2.844-3.41.47-6.828.893-10.244,1.325s-6.834.846-10.254,1.249l.353-.137q-2.563,1.693-5.145,3.356c-1.724,1.107-3.431,2.238-5.167,3.325l-5.195,3.284C430.957,93.37,429.211,94.445,427.463,95.515Z" transform="translate(-75.722 -0.403)"/>
      <path id="Path_476" data-name="Path 476" d="M329.192,475.992q15.446-1.951,30.928-3.478c5.158-.538,10.323-1,15.484-1.492l15.495-1.368,15.505-1.249c5.172-.374,10.34-.79,15.516-1.122,5.173-.361,10.349-.679,15.527-.985,5.182-.251,10.358-.579,15.546-.762-5.146.688-10.3,1.232-15.455,1.852-5.155.565-10.312,1.118-15.473,1.629-5.157.538-10.323.994-15.484,1.492l-15.5,1.365-15.505,1.246c-5.172.375-10.34.788-15.515,1.121Q344.747,475.329,329.192,475.992Z" transform="translate(-46.624 -117.433)"/>
      <path id="Path_477" data-name="Path 477" d="M329.192,221.493q15.537.226,31.049.878c5.173.187,10.341.455,15.511.686l15.5.809,15.5.93c5.163.353,10.329.663,15.49,1.057,5.162.366,10.323.774,15.482,1.195,5.156.476,10.317.874,15.47,1.417-5.181-.038-10.354-.22-15.531-.325-5.174-.16-10.348-.333-15.519-.548-5.172-.187-10.34-.457-15.51-.686l-15.5-.812-15.5-.933c-5.164-.351-10.329-.664-15.49-1.057Q344.656,223.01,329.192,221.493Z" transform="translate(-46.624 -45.171)"/>
      <path id="Path_478" data-name="Path 478" d="M673.776,93.749l.42,35.628c.146,11.876.206,23.752.284,35.628l.229,35.628.081,35.628c.041,23.752.144,47.5.049,71.257l-.077,35.628c-.022,11.875-.041,23.752-.139,35.628v.013a.842.842,0,0,1-.743.828l-46.152,5.457-23.087,2.637L581.55,390.3l23.02-3.171L627.6,384l46.075-6.071-.743.841c-.1-11.876-.117-23.752-.139-35.628l-.077-35.628c-.1-23.752.008-47.5.048-71.257l.081-35.628.23-35.628c.078-11.876.137-23.752.283-35.628Z" transform="translate(-121.348 -7.346)"/>
      <path id="Path_479" data-name="Path 479" d="M505.357,287.829c4.487-.295,8.965-.37,13.44-.368,2.238-.02,4.474.04,6.711.063l6.706.188,6.7.308c2.232.145,4.466.248,6.7.434,4.463.329,8.924.738,13.376,1.368-4.487.3-8.965.374-13.44.372-2.238.02-4.474-.043-6.711-.063l-6.706-.191-6.7-.31c-2.233-.144-4.466-.249-6.7-.435C514.27,288.864,509.809,288.457,505.357,287.829Z" transform="translate(-98.787 -64.704)"/>
      <path id="Path_480" data-name="Path 480" d="M505.357,348.672c4.469-.462,8.939-.7,13.408-.867,2.235-.1,4.47-.125,6.7-.186l6.7-.061,6.7.058c2.235.062,4.47.082,6.7.186,4.469.163,8.938.405,13.408.87-4.47.464-8.939.707-13.408.87-2.235.1-4.47.124-6.7.186l-6.7.058-6.7-.061c-2.234-.061-4.469-.084-6.7-.187C514.3,349.375,509.826,349.133,505.357,348.672Z" transform="translate(-98.787 -82.5)"/>
      <path id="Path_481" data-name="Path 481" d="M581.55,181.35c7.726.225,15.433.669,23.134,1.19,3.852.24,7.7.56,11.545.842l11.534.966,11.523,1.085c3.838.4,7.678.766,11.512,1.211,7.671.847,15.335,1.774,22.979,2.921-7.727-.222-15.434-.665-23.134-1.187-3.852-.239-7.7-.562-11.545-.842l-11.533-.969-11.523-1.088c-3.838-.4-7.678-.768-11.512-1.212C596.858,183.419,589.194,182.495,581.55,181.35Z" transform="translate(-121.348 -33.285)"/>
      <path id="Path_482" data-name="Path 482" d="M650,398.439c3.651-.617,7.311-1.014,10.974-1.333,1.831-.18,3.665-.281,5.5-.419l5.5-.295,5.508-.175c1.838-.016,3.674-.073,5.513-.048,3.678.008,7.358.094,11.048.4-3.651.619-7.311,1.018-10.974,1.337-1.831.181-3.665.279-5.5.419l-5.5.291-5.508.172c-1.838.017-3.674.072-5.514.047C657.371,398.83,653.691,398.745,650,398.439Z" transform="translate(-141.617 -96.892)"/>
      <path id="Path_483" data-name="Path 483" d="M649.993,430.565c5.2-.841,10.417-1.388,15.641-1.864s10.47-.617,15.706-.9l15.712-.81,15.719-.723.012.176-15.67,1.425-15.677,1.337c-5.227.434-10.442,1.02-15.683,1.249s-10.484.41-15.748.284Z" transform="translate(-141.614 -105.807)"/>
      <path id="Path_484" data-name="Path 484" d="M649.993,435c5.2-.841,10.417-1.388,15.641-1.864s10.47-.617,15.706-.9l15.712-.81,15.719-.723.012.175-15.67,1.425-15.677,1.337c-5.227.434-10.442,1.021-15.683,1.249s-10.484.41-15.748.284Z" transform="translate(-141.614 -107.12)"/>
      <path id="Path_485" data-name="Path 485" d="M649.993,439.437c5.2-.841,10.417-1.389,15.641-1.864s10.47-.617,15.706-.9l15.712-.811,15.719-.722.012.175-15.67,1.425-15.677,1.337c-5.227.434-10.442,1.021-15.683,1.249s-10.484.409-15.748.284Z" transform="translate(-141.614 -108.434)"/>
      <path id="Path_486" data-name="Path 486" d="M649.993,443.873c5.2-.842,10.417-1.389,15.641-1.864s10.47-.617,15.706-.9l15.712-.811,15.719-.722.012.175-15.67,1.425-15.677,1.337c-5.227.434-10.442,1.02-15.683,1.249s-10.484.409-15.748.284Z" transform="translate(-141.614 -109.747)"/>
      <path id="Path_487" data-name="Path 487" d="M649.993,448.308c5.2-.841,10.417-1.388,15.641-1.863s10.47-.617,15.706-.9l15.712-.81,15.719-.723.012.176-15.67,1.425-15.677,1.337c-5.227.434-10.442,1.02-15.683,1.249s-10.484.409-15.748.284Z" transform="translate(-141.614 -111.06)"/>
      <path id="Path_488" data-name="Path 488" d="M581.553,237.393c8.063.1,16.107.47,24.145.911,4.018.238,8.036.481,12.048.809l12.035.989h.017a.717.717,0,0,1,.434.194l19.552,18.557,19.5,18.618-.12.129-19.995-18.082-19.938-18.142.451.195-12.056-.689c-4.018-.232-8.031-.548-12.044-.869-8.022-.679-16.039-1.432-24.038-2.447Z" transform="translate(-121.345 -49.879)"/>
      <path id="Path_489" data-name="Path 489" d="M581.553,242.329c8.06.023,16.1.334,24.141.717l6.025.339,6.02.413,12.035.914h.018a.686.686,0,0,1,.421.187l17.992,16.986,17.932,17.05-.12.129L647.6,262.536l-18.355-16.591.438.187-12.056-.588-6.025-.339-6.02-.412c-8.023-.619-16.042-1.31-24.042-2.288Z" transform="translate(-121.346 -51.341)"/>
      <path id="Path_490" data-name="Path 490" d="M581.553,247.262c8.057-.056,16.1.189,24.135.531l6.024.3,6.02.392,12.037.829h.017a.661.661,0,0,1,.41.179l16.378,15.417L662.9,280.393l-.119.13-16.783-14.978-16.728-15.037.427.179-12.055-.5-6.026-.272-6.022-.359c-8.024-.542-16.044-1.183-24.047-2.122Z" transform="translate(-121.346 -52.799)"/>
      <path id="Path_491" data-name="Path 491" d="M581.552,252.18q6.042-.1,12.072.011c4.021.075,8.041.169,12.057.337,4.017.15,8.031.38,12.042.647l12.038.74h.017a.629.629,0,0,1,.4.173l14.568,13.848,14.519,13.9-.12.129-14.954-13.432-14.9-13.485.415.175-12.053-.411c-4.019-.117-8.036-.27-12.049-.5-4.014-.215-8.024-.505-12.034-.814s-8.016-.69-12.018-1.14Z" transform="translate(-121.346 -54.244)"/>
      <path id="Path_492" data-name="Path 492" d="M581.552,257.088c4.026-.113,8.049-.134,12.069-.1,4.02.051,8.04.1,12.055.262,4.017.12,8.029.372,12.042.6l12.039.651h.017a.6.6,0,0,1,.383.166l12.856,12.279,12.814,12.324-.12.129-13.221-11.887-13.179-11.931.4.167-12.052-.324c-4.018-.1-8.036-.17-12.05-.374-4.015-.168-8.026-.439-12.037-.712-4.01-.29-8.018-.637-12.022-1.074Z" transform="translate(-121.347 -55.677)"/>
      <path id="Path_493" data-name="Path 493" d="M173.291,162.422c6.628-.961,13.266-1.831,19.906-2.678,6.638-.87,13.289-1.622,19.932-2.44,6.648-.777,13.3-1.533,19.957-2.212l19.977-2.033.018,0a.707.707,0,0,1,.128,0l14.917,1.611,14.911,1.691-.015.175-14.975-.961-14.968-1.041h.146l-19.945,2.325c-6.648.772-13.305,1.47-19.965,2.145-6.663.635-13.32,1.335-19.989,1.917-6.667.605-13.336,1.187-20.015,1.679Z" transform="translate(-0.461 -24.906)"/>
      <path id="Path_494" data-name="Path 494" d="M173.292,168.018c3.313-.481,6.632-.9,9.948-1.354l9.958-1.254c6.64-.83,13.289-1.568,19.933-2.355l9.976-1.083,9.985-1.008,19.977-1.929h.018a.585.585,0,0,1,.116,0l14.92,1.518,14.913,1.6-.015.175-14.972-.9-14.965-.983h.133L233.274,162.7l-9.977,1.083-9.984,1.007c-6.663.606-13.321,1.263-19.989,1.827l-10,.836c-3.337.245-6.672.522-10.012.737Z" transform="translate(-0.461 -26.676)"/>
      <path id="Path_495" data-name="Path 495" d="M173.292,173.613c3.313-.473,6.632-.881,9.948-1.323l9.959-1.217q9.963-1.173,19.935-2.258l9.978-1.028,9.986-.943,19.977-1.836h.017a.586.586,0,0,1,.111,0l14.92,1.547,14.913,1.628-.015.175-14.972-.952-14.965-1.033h.127l-19.944,2.17-9.974,1.059-9.983.974q-9.99.9-19.986,1.748l-10,.785c-3.338.226-6.672.485-10.013.68Z" transform="translate(-0.461 -28.445)"/>
      <path id="Path_496" data-name="Path 496" d="M173.293,179.209c3.313-.461,6.631-.867,9.948-1.29l9.959-1.185c6.645-.729,13.287-1.487,19.938-2.155s13.307-1.275,19.967-1.848l19.977-1.746h.015a.684.684,0,0,1,.093,0l14.925,1.294,14.92,1.365-.013.176-14.965-.727-14.96-.8h.108l-19.945,2.084c-6.647.7-13.3,1.387-19.954,1.981-6.657.61-13.322,1.128-19.984,1.675l-10,.729c-3.337.215-6.672.448-10.012.624Z" transform="translate(-0.461 -30.215)"/>
      <path id="Path_497" data-name="Path 497" d="M173.293,184.658c3.313-.465,6.63-.884,9.947-1.3l9.958-1.2c6.646-.71,13.285-1.508,19.939-2.139,6.65-.681,13.312-1.229,19.971-1.81l19.977-1.744h.015a.568.568,0,0,1,.091,0l14.915,1.358,14.911,1.42-.013.175-14.955-.824L253.1,177.71h.106l-19.944,2.085c-6.648.7-13.293,1.423-19.951,2.02-6.653.644-13.322,1.124-19.982,1.689l-10,.719c-3.336.22-6.672.439-10.013.612Z" transform="translate(-0.461 -31.838)"/>
      <path id="Path_498" data-name="Path 498" d="M173.312,514.2q10.024,1.082,20.026,2.331c6.674.788,13.332,1.684,20,2.539s13.319,1.777,19.974,2.7l19.944,2.911-.2,0,29.906-3.167-.322.137,58.316-48.3.113.135-57.65,49.088a.59.59,0,0,1-.315.137H283.1l-29.864,3.543a.748.748,0,0,1-.186,0l-.013,0-19.977-2.678c-6.653-.94-13.306-1.872-19.948-2.89s-13.291-1.976-19.924-3.05q-9.958-1.562-19.9-3.259Z" transform="translate(-0.46 -119.747)"/>
      <path id="Path_499" data-name="Path 499" d="M173.311,510.545c6.683.683,13.357,1.441,20.026,2.229,6.674.753,13.33,1.633,20,2.45q5,.608,9.99,1.287c3.327.443,6.657.871,9.981,1.349l19.943,2.834-.186,0,29.906-3.014-.311.131,53.417-43.873.113.135L283.4,518.7a.571.571,0,0,1-.3.131h-.007l-29.865,3.394a.717.717,0,0,1-.173,0h-.013l-19.978-2.58c-3.33-.425-6.654-.9-9.98-1.358s-6.65-.923-9.971-1.419c-6.642-.988-13.292-1.912-19.926-2.964-6.638-1.016-13.272-2.062-19.9-3.184Z" transform="translate(-0.46 -119.92)"/>
      <path id="Path_500" data-name="Path 500" d="M173.311,506.9c6.683.643,13.356,1.371,20.025,2.126,6.673.726,13.33,1.577,19.995,2.359,3.334.386,6.659.834,9.988,1.254s6.655.864,9.979,1.32l19.942,2.759-.179,0,29.906-3.092-.293.124,48.294-39.2.112.136-47.7,39.926a.542.542,0,0,1-.286.123h-.007l-29.864,3.477a.721.721,0,0,1-.165,0l-.014,0-19.979-2.478c-3.329-.416-6.658-.841-9.982-1.3s-6.653-.878-9.973-1.364c-6.641-.964-13.292-1.858-19.927-2.878-6.638-.992-13.273-2.009-19.9-3.112Z" transform="translate(-0.46 -120.101)"/>
      <path id="Path_501" data-name="Path 501" d="M173.311,503.251c3.344.292,6.679.643,10.019.964l10.006,1.059c6.672.706,13.329,1.515,19.994,2.269,6.66.8,13.316,1.622,19.962,2.514l19.941,2.685-.158,0,29.9-2.6-.288.118,43.292-35.113.112.136-42.73,35.8a.513.513,0,0,1-.281.118h-.007l-29.867,2.99a.673.673,0,0,1-.145,0h-.014l-19.98-2.377c-6.66-.795-13.311-1.658-19.959-2.546-6.642-.935-13.291-1.812-19.927-2.793l-9.954-1.472c-3.314-.523-6.631-1.016-9.942-1.567Z" transform="translate(-0.46 -120.278)"/>
      <path id="Path_502" data-name="Path 502" d="M173.311,499.605c3.344.286,6.68.636,10.021.952l10.007,1.054c6.669.719,13.33,1.51,19.994,2.269l9.985,1.231,9.974,1.314,19.939,2.7-.156,0,29.885-2.749-.267.111,38.188-30.728.111.137-37.665,31.366a.483.483,0,0,1-.261.11h-.007l-29.846,3.145a.687.687,0,0,1-.142,0l-.014,0-19.982-2.364-9.986-1.217-9.976-1.3c-6.643-.928-13.29-1.824-19.927-2.792l-9.954-1.477c-3.313-.528-6.631-1.022-9.94-1.579Z" transform="translate(-0.46 -120.459)"/>
      <path id="Path_503" data-name="Path 503" d="M329.194,251.035c5.5,0,10.993.083,16.487.194,5.495.087,10.984.292,16.477.432,5.491.181,10.981.384,16.468.662l16.46.842-.474.146,16.425-11.89,16.473-11.825.1.141-16.035,12.412L395.5,254.5a.707.707,0,0,1-.456.146h-.018l-16.472-.549c-5.49-.185-10.978-.446-16.465-.729-5.485-.323-10.972-.581-16.455-.958-5.483-.353-10.966-.73-16.444-1.2Z" transform="translate(-46.622 -47.57)"/>
      <path id="Path_504" data-name="Path 504" d="M329.193,255.213c5.5-.1,11-.071,16.489,0l8.239.152c2.746.047,5.49.163,8.235.241,5.488.225,10.974.509,16.46.781l16.46.781-.36.111,19.019-13.857,19.044-13.822.1.141-18.732,14.242-18.758,14.208a.548.548,0,0,1-.348.112h-.012l-16.473-.434c-5.491-.134-10.983-.254-16.473-.434-2.743-.125-5.488-.212-8.231-.367l-8.227-.455c-5.484-.339-10.966-.713-16.444-1.219Z" transform="translate(-46.622 -47.57)"/>
      <path id="Path_505" data-name="Path 505" d="M329.194,259.55c5.5-.139,10.993-.151,16.485-.106l8.238.1c2.745.066,5.49.125,8.234.222l32.92,1.407-.341.108,42.146-31.154.106.141-41.6,31.876a.527.527,0,0,1-.33.108h-.011l-32.944-.671c-2.745-.076-5.488-.189-8.232-.3l-8.228-.418c-5.485-.3-10.968-.659-16.447-1.145Z" transform="translate(-46.623 -47.729)"/>
      <path id="Path_506" data-name="Path 506" d="M329.193,263.728c5.5-.177,10.991-.233,16.483-.208l8.237.06c2.745.064,5.49.09,8.233.2l32.922,1.251-.319.1,47.327-35,.106.141L395.36,265.948a.5.5,0,0,1-.309.1h-.01l-32.942-.474c-2.745-.032-5.488-.15-8.233-.229l-8.229-.372c-5.486-.262-10.969-.605-16.449-1.071Z" transform="translate(-46.623 -47.729)"/>
      <path id="Path_507" data-name="Path 507" d="M329.193,268.092c2.748-.112,5.5-.2,8.242-.234s5.493-.093,8.238-.077c5.491-.01,10.981.006,16.469.2l32.923,1.1-.3.1L446.4,230.758l.106.141-51.164,39.035a.467.467,0,0,1-.287.1h-.009l-32.941-.279c-5.49-.033-10.977-.246-16.463-.486-2.744-.1-5.486-.258-8.228-.419s-5.484-.351-8.225-.578Z" transform="translate(-46.623 -47.915)"/>
      <path id="Path_508" data-name="Path 508" d="M567.241,371.682,487.415,374.7,447.5,376.2l-19.957.731c-6.654.19-13.307.419-19.963.547h-.018a.8.8,0,0,1-.5-.164l-9.187-6.97q-4.6-3.474-9.161-7-9.149-7.021-18.216-14.153l.106-.141q9.45,6.616,18.79,13.38,4.688,3.359,9.342,6.762l9.316,6.8-.521-.163c6.651-.293,13.305-.484,19.958-.715l19.964-.531,39.928-1.035,79.858-2.027Z" transform="translate(-58.854 -82.939)"/>
      <path id="Path_509" data-name="Path 509" d="M564.983,374.8l-79.825,3.232-39.914,1.591c-13.3.555-26.609,1.073-39.918,1.459h-.013a.85.85,0,0,1-.536-.169l-10.523-7.872c-3.5-2.628-7.025-5.234-10.507-7.893l-10.469-7.945c-3.47-2.676-6.958-5.326-10.411-8.026l.1-.142c3.61,2.484,7.185,5.017,10.778,7.525l10.718,7.606c3.581,2.525,7.122,5.1,10.681,7.658l10.665,7.679-.548-.169c13.305-.529,26.614-.928,39.924-1.289l39.928-1.157,79.858-2.263Z" transform="translate(-56.595 -82.939)"/>
      <path id="Path_510" data-name="Path 510" d="M562.67,377.927l-79.825,3.443-39.913,1.691c-13.3.564-26.607,1.192-39.916,1.609h0a.888.888,0,0,1-.55-.169c-3.991-2.887-7.941-5.832-11.909-8.751l-11.886-8.782-11.836-8.851c-3.928-2.974-7.868-5.932-11.774-8.937l.1-.142c4.073,2.773,8.112,5.594,12.164,8.4l12.1,8.483,12.052,8.554c4.011,2.859,8.041,5.693,12.029,8.584l-.555-.169c13.3-.573,26.616-.935,39.926-1.362l39.929-1.28,79.86-2.5Z" transform="translate(-54.282 -82.939)"/>
      <path id="Path_511" data-name="Path 511" d="M560.521,381.049,480.7,384.706,440.785,386.5c-13.3.6-26.607,1.256-39.915,1.752h0a.894.894,0,0,1-.56-.17q-6.617-4.788-13.2-9.628l-13.164-9.674c-8.742-6.5-17.486-12.989-26.147-19.6l.1-.142c9,6.139,17.917,12.391,26.836,18.641l13.328,9.446q6.675,4.708,13.3,9.491l-.564-.17c13.306-.569,26.617-.982,39.927-1.442l39.928-1.4,79.86-2.731Z" transform="translate(-52.133 -82.939)"/>
      <path id="Path_512" data-name="Path 512" d="M558.263,384.171l-79.822,3.869-79.826,3.789a.894.894,0,0,1-.571-.17c-4.848-3.5-9.723-6.971-14.549-10.506l-14.5-10.573-14.447-10.648q-7.212-5.34-14.375-10.749l.1-.144q7.427,5.041,14.8,10.154L369.8,369.448l14.676,10.33c4.9,3.433,9.75,6.933,14.627,10.4l-.57-.17,79.858-3.044L558.256,384Z" transform="translate(-49.875 -82.938)"/>
      <path id="Path_513" data-name="Path 513" d="M372.818,98.292l9.011,7.8,8.978,7.832,8.958,7.854,8.93,7.885-.411-.183c9.295.922,18.6,1.782,27.886,2.754q13.94,1.405,27.866,2.938l55.711,6.081-.438.121L545.4,121.957l0,0a.494.494,0,0,1,.358-.094l83.76,11.063-.022.175L545.638,122.85l.362-.1-25.944,19.613a.619.619,0,0,1-.432.122h-.006L463.854,136.9q-13.939-1.409-27.871-2.9c-9.289-.973-18.567-2.057-27.852-3.08h-.01a.708.708,0,0,1-.4-.182l-8.794-8.037-8.766-8.068-8.747-8.09L372.7,98.423Z" transform="translate(-59.507 -8.691)"/>
      <path id="Path_514" data-name="Path 514" d="M367.219,98.646q10.026,8.591,19.974,17.269l9.952,8.673,9.91,8.721-.427-.189c9.3.9,18.6,1.786,27.89,2.752,9.295.928,18.581,1.941,27.871,2.935l55.725,6.025-.433.12,26.213-19.6,0,0a.487.487,0,0,1,.354-.093l83.614,10.86-.022.175-83.715-10.059.357-.1L518.42,145.934a.606.606,0,0,1-.427.121h-.006l-55.775-5.544c-9.295-.933-18.592-1.848-27.88-2.848-9.292-.963-18.576-2.006-27.861-3.033h-.011a.738.738,0,0,1-.417-.187l-9.785-8.861-9.743-8.908q-9.754-8.9-19.416-17.9Z" transform="translate(-57.849 -8.796)"/>
      <path id="Path_515" data-name="Path 515" d="M358.976,96.943l11.473,9.784,11.424,9.84,11.4,9.867,11.364,9.907-.448-.2q13.95,1.3,27.886,2.725l27.868,2.909,55.727,5.9-.424.119,26.064-19.549,0,0a.48.48,0,0,1,.346-.092l83.765,10.51-.021.175-83.86-9.723.35-.094-25.92,19.738a.6.6,0,0,1-.419.12h-.006l-55.774-5.439-27.883-2.76q-13.936-1.434-27.864-2.945h-.012a.785.785,0,0,1-.436-.195L392.348,127.48l-11.195-10.1-11.172-10.126L358.859,97.075Z" transform="translate(-55.408 -8.291)"/>
      <path id="Path_516" data-name="Path 516" d="M351.789,96.391q12.782,10.72,25.443,21.579,6.351,5.407,12.662,10.858l12.634,10.889-.464-.2c9.3.862,18.59,1.826,27.884,2.746l27.865,2.923,55.728,5.876-.417.117,26.21-19.649,0,0a.471.471,0,0,1,.34-.091l83.667,10.257-.02.175-83.758-9.485.343-.093-26.069,19.835a.587.587,0,0,1-.412.118h-.006l-55.773-5.431-27.885-2.73c-9.289-.965-18.583-1.885-27.867-2.908h-.013a.811.811,0,0,1-.451-.2l-12.491-11.054q-6.255-5.517-12.463-11.086-12.448-11.1-24.807-22.309Z" transform="translate(-53.28 -8.128)"/>
      <path id="Path_517" data-name="Path 517" d="M344.632,95.594l14.022,11.775,13.958,11.847c9.306,7.9,18.543,15.874,27.817,23.808l-.479-.207c9.294.919,18.59,1.832,27.879,2.805l27.865,2.944,55.728,5.9-.415.118,26.259-19.945,0,0a.467.467,0,0,1,.337-.091l83.635,10.1-.02.175L537.5,135.48l.339-.094-26.119,20.128a.577.577,0,0,1-.409.118H511.3l-55.773-5.471-27.886-2.742c-9.294-.923-18.582-1.905-27.871-2.882h-.009a.84.84,0,0,1-.47-.206c-9.155-8.072-18.347-16.1-27.471-24.208l-13.685-12.161L344.517,95.727Z" transform="translate(-51.161 -7.892)"/>
      <path id="INBOX_24_logotyp_podstawowy_kolor" data-name="INBOX 24 logotyp podstawowy kolor" d="M299.981,465.353v-2.445l9.629-.56v2.445Zm0-11.309V451.6l9.629-.561v1.834l-5.227,4.431,5.227-.3v2.445l-9.629.56v-1.834l5.226-4.43Zm4.637-12.251a2.553,2.553,0,0,1,2.174-1.441,2.329,2.329,0,0,1,2.036.875,3.666,3.666,0,0,1,.784,2.414v4.494l-9.631.561v-4.188a3.958,3.958,0,0,1,.763-2.451,2.577,2.577,0,0,1,1.989-1.086,2.147,2.147,0,0,1,1.884.824Zm-2.572,2.595v1.743l1.7-.1v-1.742a.9.9,0,0,0-.24-.658.854.854,0,0,0-1.225.071,1.01,1.01,0,0,0-.243.686Zm5.5-.625a.986.986,0,0,0-.255-.719.95.95,0,0,0-1.334.078,1.093,1.093,0,0,0-.255.748v2.048l1.843-.108Zm.811-14.535a6.1,6.1,0,0,1,.069,7.989,4.76,4.76,0,0,1-7.194.495,6.094,6.094,0,0,1-.068-7.988,5.176,5.176,0,0,1,3.631-1.9A4.352,4.352,0,0,1,308.358,429.227Zm-1.5,6.253a3.5,3.5,0,0,0,0-4.447,2.838,2.838,0,0,0-4.127.24,3.5,3.5,0,0,0,0,4.447A2.84,2.84,0,0,0,306.859,435.48Zm2.749-17.88v2.782l-2.785,1.965,2.785,1.641v2.781l-4.932-2.906-4.7,3.314V424.4l2.55-1.8-2.549-1.5v-2.783l4.7,2.768Zm0-28.567-1.594.093-3.356-3.4a2.513,2.513,0,0,0-1.7-.985,1.073,1.073,0,0,0-1.019,1.054,1.188,1.188,0,0,0,0,.15,1.541,1.541,0,0,0,1.045,1.513l-1.087,2.126a3.13,3.13,0,0,1-1.568-1.375,4.467,4.467,0,0,1,.3-4.717,2.872,2.872,0,0,1,2.235-1.192,3.955,3.955,0,0,1,3.025,1.489l1.611,1.684v-3.594l2.118-.124Zm-3.577-16.925,2.036-.118v1.07l1.541-.09v2.476l-1.539.089V380.4l-2.037.118-6.051-3.056V374.83l6.052,3.056v-2.231l-2.063.12V373.3l2.063-.12Zm-12.139,31.57a1.414,1.414,0,0,0,0,1.288l4.118,7.685,1.232-2.426-2.894-5.4a1.415,1.415,0,0,1,0-1.289l2.872-5.693-1.24-2.269Zm15.529,9.418a1.128,1.128,0,0,0,.921-.644l.921-1.827-10.134.591-1.237,2.435Zm-8.338-16.5,10.18-.593-.923-1.72a.98.98,0,0,0-.921-.536l-9.587.558Zm.419,5.428-1.2-2.2-1.842,3.65a1.411,1.411,0,0,0,0,1.289l1.829,3.413,1.191-2.346a3.184,3.184,0,0,1,.024-3.809Zm10.173,6.626a1.127,1.127,0,0,0,.923-.653l.907-1.82-10.116.589-1.24,2.436Zm-8.173-7.764,10.06-.586-.917-1.719a.979.979,0,0,0-.921-.538l-9.543.556,1.252,2.29Zm2.393,3.924,7.972-.464a1.21,1.21,0,0,0,1.064-1.244,1.052,1.052,0,0,0-1.064-1.12h0l-7.97.464a3.155,3.155,0,0,1,.243,1.223,2.933,2.933,0,0,1-.246,1.14Z" transform="translate(-36.125 -89.734)"/>
      <path id="Path_518" data-name="Path 518" d="M329.192,331.271c10.333-.31,20.667-.462,31-.683l15.5-.253,15.5-.2c10.334-.108,20.667-.226,31-.273l15.5-.1,15.5-.037-.94.318,13.387-10.292,13.426-10.24L492.5,299.276l13.472-10.18.405-.307.491.017,11.526.391,11.525.437q11.525.43,23.049.917c7.683.307,15.364.672,23.046,1.044s15.362.721,23.042,1.161c-7.692.017-15.381-.048-23.072-.108s-15.379-.11-23.067-.227q-11.534-.133-23.065-.353l-11.532-.2-11.53-.245.9-.29-13.343,10.348-13.387,10.292-13.39,10.287L454.133,332.5l-.42.32h-.52l-15.5-.037-15.5-.1c-10.334-.048-20.667-.165-31-.273l-15.5-.2-15.5-.254C349.859,331.732,339.525,331.58,329.192,331.271Z" transform="translate(-46.624 -65.098)" fill="#cc0579"/>
    </g>
  </g>
</svg>
