<svg id="Warstwa_1" data-name="Warstwa 1" xmlns="http://www.w3.org/2000/svg" xmlns:xlink="http://www.w3.org/1999/xlink" viewBox="0 0 680.2 749.79"><defs><style>.cls-1{fill:url(#Gradient_bez_nazwy_16);}</style><linearGradient id="Gradient_bez_nazwy_16" x1="178.57" y1="374.89" x2="501.63" y2="374.89" gradientUnits="userSpaceOnUse"><stop offset="0" stop-color="#e4007a"/><stop offset="1" stop-color="#302979"/></linearGradient></defs><path class="cls-1" d="M482.17,257.27l-39.07,23L350.86,227a21.54,21.54,0,0,0-21.52,0l-93,53.68-39.31-22.86,132.28-76.38a21.52,21.52,0,0,1,21.51,0ZM178.57,469.46a19.71,19.71,0,0,0,9.86,17.07L218,503.62V315.67l-39.46-22.95Zm283.6-154.64v188.8l29.61-17.13a19.72,19.72,0,0,0,9.85-17.07V291.6Zm-91,7.78,37.87-22.3-59.16-34.16a21.52,21.52,0,0,0-21.51,0l-58.75,33.92,38,22.09a48.92,48.92,0,0,1,63.57.45ZM250.66,511.25a19.69,19.69,0,0,0,10,17.13l29.5,16.82V357.6l-39.46-23ZM388.21,359.68V546.26l29.57-17a19.69,19.69,0,0,0,9.89-17.08v-177l-39.46,23.23Zm-67.84,44.38V551.91a19.73,19.73,0,0,0,39.46,0V404.11a49.77,49.77,0,0,1-20.66,4.51C330.78,408.62,326.16,406.42,320.37,404.06Z"/></svg>